<svg xmlns="http://www.w3.org/2000/svg" width="1046.511" height="1927.777" viewBox="0 0 1046.511 1927.777">
  <g id="land_cruiser_Passenger_Side_Front" data-name="land_cruiser_Passenger Side_Front" transform="translate(5.329 5.922)">
    <path id="Path_16106" data-name="Path 16106" d="M1884.627,1938c-149.229.373-271.212.657-303.066.657-85.61,0-301.065-.271-364.659-1.547-.771,13.969-1.745,28.315-2.993,42.833-10.1,117.883,1.686,217.246-94.31,217.246H973.468c-96,0-84.207-99.363-94.31-217.246-7.033-82.061-5.7-170.862-4.39-214.336-12.736-74.934-18.834-156.5-22.8-219.988-6.166-98.657,4.625-229.169,13.356-304.7s19.016-146.96,37-184.471,60.119-79.132,70.91-88.382a114.33,114.33,0,0,0,13.7-14.367c1.735-14.749,4.366-54.511-13.519-77.874-29.085.45-118.154,4.541-120.883-38.174S845.713,741.3,869.8,729.483s82.256-26.813,117.245-26.813,43.175,22.722,46.354,62.256,5.913,80.893-2.723,87.259-12.73,9.086-12.73,9.086,10.454,23.665,20.993,36.87c8.031-8.645,23.363-20.129,27.809-23.092,4.625-3.083,13.494-19.593,23.123-59.093,40.08-164.428,113.043-336.052,139.767-394.63s52.412-67.827,52.412-67.827,15.927-28.774,30.313-51.385,31.343-21.066,80.159-20.555,55.495,23.123,55.495,41.621c151.587-11.306,418.523-13.618,418.523-13.618s2.313-24.664,16.186-24.664" transform="translate(-849.458 -281.329)" fill="none" stroke="#31d98a" stroke-linecap="round" stroke-linejoin="round" stroke-width="12"/>
    <path id="Path_16107" data-name="Path 16107" d="M1060.093,774.687s21.942,77.165,33.293,97.6,83.217,23.453,127.1,27.236,198.983,9.838,198.983,9.838" transform="translate(-1031.578 746.357)" fill="none" stroke="#31d98a" stroke-linecap="round" stroke-linejoin="round" stroke-width="3"/>
    <path id="Path_16108" data-name="Path 16108" d="M1705.645,786.92c-230.355-.45-460.079-.848-460.079-.848-31.373,0-47.732,19.371-61.6,33.232,0,0-234.684-8.414-255.88-8.414s-30.241,5.926-43.952,22.441-34.28,42.071-34.28,42.071" transform="translate(-669.573 770.072)" fill="none" stroke="#31d98a" stroke-linecap="round" stroke-linejoin="round" stroke-width="3"/>
    <path id="Path_16109" data-name="Path 16109" d="M1424.662,729.91,1168.6,730.4c-64.876,0-203.493-.348-228.309-.348s-39.358,1.77-51.407,15.24-29.073,37.225-34.033,43.964-10.994,15.952,10.985,15.952c11,0,285.049.354,558.832.709" transform="translate(-389.496 653.085)" fill="none" stroke="#31d98a" stroke-linecap="round" stroke-linejoin="round" stroke-width="3"/>
    <path id="Path_16110" data-name="Path 16110" d="M1832.8,544.427c-127.216-.318-238.356-.509-266.874-.305-72.957.521-193.334,4.171-229.813,3.129s-127.151,31.268-162.587,27.1-211.044-18.761-243.357-21.89-79.724-17.2-79.724-17.2" transform="translate(-798.535 247.628)" fill="none" stroke="#31d98a" stroke-linecap="round" stroke-linejoin="round" stroke-width="5"/>
    <path id="Path_16111" data-name="Path 16111" d="M1048.348,639.4s2.42,36.287,12.1,44.753,31.45,16.331,96.163,25.4,97.976,12.7,156.646,18.745,120.359,10.285,120.359,10.285-6.052-29.637-7.865-50.2-4.833-29.03-16.331-35.073-16.331-11.5-16.331-21.775-1.212-35.079-.6-42.941,27.818-32.662,53.827-42.336" transform="translate(-1022.207 270.546)" fill="none" stroke="#31d98a" stroke-linecap="round" stroke-linejoin="round" stroke-width="5"/>
    <path id="Path_16112" data-name="Path 16112" d="M849.527,600.423s16.155,174.584,24.779,230.621,14.019,72.211,39.882,86.223,68.971,28.019,82.984,33.408,24.784-2.161,35.563-7.544,23.7-11.851,51.724-5.389,200.453,17.24,265.111,17.24,334.516,6.474,384.091,6.474" transform="translate(-696.58 383.357)" fill="none" stroke="#31d98a" stroke-linecap="round" stroke-linejoin="round" stroke-width="3"/>
    <path id="Path_16113" data-name="Path 16113" d="M1135.238,847.344c-9.918-2.374-20.234-2.377-23.8-28.555s-8.725-65.04-10.315-77.726,2.775-13.085,19.041-11.105,167.749,19.83,182.424,22.6,21.02,5.161,12.693,20.234-27.368,52.347-36.882,63.051-17.052,18.643-46.005,18.643S1135.238,847.344,1135.238,847.344Z" transform="translate(-1056.654 651.329)" fill="none" stroke="#31d98a" stroke-linecap="round" stroke-linejoin="round" stroke-width="5"/>
    <path id="Path_16114" data-name="Path 16114" d="M850.588,608.667s16.223,134.276,24.6,159.415,40.018,37.832,67.827,48.906c18.581,7.4,53.506,23.641,101.3,23.641h429.021" transform="translate(-439.529 400.53)" fill="none" stroke="#31d98a" stroke-linecap="round" stroke-linejoin="round" stroke-width="5"/>
    <path id="Path_16115" data-name="Path 16115" d="M1064.334,545.076s29.465,4.02,42.194,7.369,9.375,16.072,12.724,34.157,10.72,30.137,30.806,35.5,120.553,15.4,159.4,18.082,87.065,6.7,87.065,6.7" transform="translate(-1021.698 268.067)" fill="none" stroke="#31d98a" stroke-linecap="round" stroke-linejoin="round" stroke-width="3"/>
    <path id="Path_16116" data-name="Path 16116" d="M1308.765,704.315s-71.869-.866-122.088-7.791-59.746-20.78-59.746-20.78" transform="translate(-1126.93 540.254)" fill="none" stroke="#31d98a" stroke-linecap="round" stroke-linejoin="round" stroke-width="3"/>
    <path id="Path_16117" data-name="Path 16117" d="M1019.478,341.262s20.841-2.651,34.86-6.44c14.4-1.9,20.468-3.789,20.468-3.789l8.713-48.12" transform="translate(-570.405 -278.032)" fill="none" stroke="#31d98a" stroke-linecap="round" stroke-linejoin="round" stroke-width="3"/>
    <line id="Line_22" data-name="Line 22" x1="5.673" y2="46.831" transform="translate(482.431 8.669)" fill="none" stroke="#31d98a" stroke-linecap="round" stroke-linejoin="round" stroke-width="3"/>
    <path id="Path_16118" data-name="Path 16118" d="M991.21,284.264l27.655,10.23-12.887,33.343L1083.67,314.2" transform="translate(-483.405 -275.216)" fill="none" stroke="#31d98a" stroke-linecap="round" stroke-linejoin="round" stroke-width="3"/>
    <path id="Path_16119" data-name="Path 16119" d="M1593.356,746.006H850.3C863.631,666,980.685,338.548,980.685,338.548s153.351-22.226,612.672-22.226" transform="translate(-558.659 -208.438)" fill="none" stroke="#31d98a" stroke-linecap="round" stroke-linejoin="round" stroke-width="5"/>
    <path id="Path_16120" data-name="Path 16120" d="M1547.428,693.428c-60.7,0-607.569,2.164-642.253,2.164s-69.375-27.1-48.78-89.97,68.29-194.028,82.382-222.214,27.1-39.025,104.065-42.275,263.948-15.175,504.592-15.175" transform="translate(-512.494 -188.361)" fill="none" stroke="#31d98a" stroke-linecap="round" stroke-linejoin="round" stroke-width="3"/>
    <path id="Path_16121" data-name="Path 16121" d="M1174.645,482.5s-25.373,22.124-49.455,46.853" transform="translate(-987.446 137.712)" fill="none" stroke="#31d98a" stroke-linecap="round" stroke-linejoin="round" stroke-width="3"/>
    <path id="Path_16122" data-name="Path 16122" d="M1185.288,469.411s-11.062,13.667-52.708,16.269" transform="translate(-1020.872 110.454)" fill="none" stroke="#31d98a" stroke-linecap="round" stroke-linejoin="round" stroke-width="3"/>
    <path id="Path_16123" data-name="Path 16123" d="M1297.81,458.646s-9.761,12.363-49.455,12.363H1126.67" transform="translate(-1115.173 88.03)" fill="none" stroke="#31d98a" stroke-linecap="round" stroke-linejoin="round" stroke-width="3"/>
    <path id="Path_16124" data-name="Path 16124" d="M1075.5,301.485s-29.2,43.36-38.051,75.214" transform="translate(-617.796 -239.344)" fill="none" stroke="#31d98a" stroke-linecap="round" stroke-linejoin="round" stroke-width="3"/>
    <path id="Path_16125" data-name="Path 16125" d="M1091.319,454.337s10.874,5.479,47.359,4.178" transform="translate(-847.053 79.054)" fill="none" stroke="#31d98a" stroke-linecap="round" stroke-linejoin="round" stroke-width="3"/>
    <path id="Path_16126" data-name="Path 16126" d="M1239.728,844.287s-19.472-28.41-25.087-35.785c-5.6-7.378-11.5-6.2-20.354-6.2s-226.539,2.066-237.749,2.066-14.157-.885-23.591,10.328-27.729,31.558-27.729,31.558" transform="translate(-374.346 803.742)" fill="none" stroke="#31d98a" stroke-linecap="round" stroke-linejoin="round" stroke-width="3"/>
  </g>
</svg>
